<svg width="400" height="300" viewBox="0 0 400 300" xmlns="http://www.w3.org/2000/svg">
  <defs>
    <linearGradient id="benchGranite" x1="0%" y1="0%" x2="100%" y2="100%">
      <stop offset="0%" style="stop-color:#B8A082;stop-opacity:1" />
      <stop offset="30%" style="stop-color:#9B8B6B;stop-opacity:1" />
      <stop offset="60%" style="stop-color:#7A6B4F;stop-opacity:1" />
      <stop offset="100%" style="stop-color:#5C4F3A;stop-opacity:1" />
    </linearGradient>
    <pattern id="benchTexture" patternUnits="userSpaceOnUse" width="4" height="4">
      <rect width="4" height="4" fill="#8B7355"/>
      <circle cx="1" cy="1" r="0.3" fill="#A68B5B" opacity="0.3"/>
      <circle cx="3" cy="3" r="0.2" fill="#6B5B47" opacity="0.4"/>
    </pattern>
    <filter id="benchShadow" x="-20%" y="-20%" width="140%" height="140%">
      <feDropShadow dx="2" dy="4" stdDeviation="3" flood-color="#000" flood-opacity="0.3"/>
    </filter>
  </defs>
  
  <!-- Фон -->
  <rect width="400" height="300" fill="#f8f9fa"/>
  
  <!-- Тень от лавочки -->
  <ellipse cx="200" cy="290" rx="80" ry="8" fill="#000" opacity="0.2"/>
  
  <!-- Лавочка с текстурой -->
  <!-- Спинка -->
  <rect x="100" y="120" width="200" height="20" fill="url(#benchGranite)" stroke="#4A3E32" stroke-width="1" filter="url(#benchShadow)"/>
  <rect x="100" y="120" width="200" height="20" fill="url(#benchTexture)" opacity="0.3"/>
  
  <!-- Сиденье -->
  <rect x="100" y="200" width="200" height="20" fill="url(#benchGranite)" stroke="#4A3E32" stroke-width="1" filter="url(#benchShadow)"/>
  <rect x="100" y="200" width="200" height="20" fill="url(#benchTexture)" opacity="0.3"/>
  
  <!-- Ножки с деталями -->
  <rect x="120" y="220" width="15" height="40" fill="url(#benchGranite)" stroke="#4A3E32" stroke-width="1" filter="url(#benchShadow)"/>
  <rect x="120" y="220" width="15" height="40" fill="url(#benchTexture)" opacity="0.3"/>
  
  <rect x="265" y="220" width="15" height="40" fill="url(#benchGranite)" stroke="#4A3E32" stroke-width="1" filter="url(#benchShadow)"/>
  <rect x="265" y="220" width="15" height="40" fill="url(#benchTexture)" opacity="0.3"/>
  
  <!-- Основание -->
  <rect x="90" y="260" width="220" height="25" fill="url(#benchGranite)" stroke="#4A3E32" stroke-width="1" filter="url(#benchShadow)"/>
  <rect x="90" y="260" width="220" height="25" fill="url(#benchTexture)" opacity="0.2"/>
  
  <!-- Декоративные элементы -->
  <g transform="translate(150, 140)">
    <circle cx="0" cy="0" r="8" fill="#DAA520" stroke="#B8860B" stroke-width="1"/>
    <circle cx="0" cy="0" r="5" fill="#FFD700" opacity="0.8"/>
    <circle cx="0" cy="0" r="2" fill="#FFA500"/>
  </g>
  
  <g transform="translate(250, 140)">
    <circle cx="0" cy="0" r="8" fill="#DAA520" stroke="#B8860B" stroke-width="1"/>
    <circle cx="0" cy="0" r="5" fill="#FFD700" opacity="0.8"/>
    <circle cx="0" cy="0" r="2" fill="#FFA500"/>
  </g>
  
  <!-- Декоративные полосы -->
  <rect x="110" y="125" width="180" height="3" fill="#DAA520" opacity="0.6"/>
  <rect x="110" y="205" width="180" height="3" fill="#DAA520" opacity="0.6"/>
  <rect x="100" y="265" width="200" height="3" fill="#DAA520" opacity="0.6"/>
  
  <!-- Реалистичные цветы -->
  <g transform="translate(50, 180)">
    <circle cx="0" cy="0" r="12" fill="#ff69b4" opacity="0.9"/>
    <circle cx="-3" cy="-3" r="4" fill="#ff1493"/>
    <circle cx="3" cy="-3" r="4" fill="#ff69b4"/>
    <circle cx="-3" cy="3" r="3" fill="#ff1493"/>
    <circle cx="3" cy="3" r="3" fill="#ff69b4"/>
    <line x1="0" y1="12" x2="0" y2="25" stroke="#228B22" stroke-width="2"/>
    <line x1="-2" y1="20" x2="-6" y2="18" stroke="#32CD32" stroke-width="1.5"/>
    <line x1="2" y1="20" x2="6" y2="18" stroke="#32CD32" stroke-width="1.5"/>
  </g>
  
  <g transform="translate(350, 180)">
    <circle cx="0" cy="0" r="12" fill="#ff69b4" opacity="0.9"/>
    <circle cx="-3" cy="-3" r="4" fill="#ff1493"/>
    <circle cx="3" cy="-3" r="4" fill="#ff69b4"/>
    <circle cx="-3" cy="3" r="3" fill="#ff1493"/>
    <circle cx="3" cy="3" r="3" fill="#ff69b4"/>
    <line x1="0" y1="12" x2="0" y2="25" stroke="#228B22" stroke-width="2"/>
    <line x1="-2" y1="20" x2="-6" y2="18" stroke="#32CD32" stroke-width="1.5"/>
    <line x1="2" y1="20" x2="6" y2="18" stroke="#32CD32" stroke-width="1.5"/>
  </g>
  
  <!-- Дополнительные цветы -->
  <g transform="translate(70, 200)">
    <circle cx="0" cy="0" r="8" fill="#FFB6C1" opacity="0.8"/>
    <line x1="0" y1="8" x2="0" y2="15" stroke="#32CD32" stroke-width="1.5"/>
  </g>
  
  <g transform="translate(330, 200)">
    <circle cx="0" cy="0" r="8" fill="#FFB6C1" opacity="0.8"/>
    <line x1="0" y1="8" x2="0" y2="15" stroke="#32CD32" stroke-width="1.5"/>
  </g>
</svg>