<svg width="400" height="300" viewBox="0 0 400 300" xmlns="http://www.w3.org/2000/svg">
  <defs>
    <linearGradient id="fenceGranite" x1="0%" y1="0%" x2="100%" y2="100%">
      <stop offset="0%" style="stop-color:#B8A082;stop-opacity:1" />
      <stop offset="30%" style="stop-color:#9B8B6B;stop-opacity:1" />
      <stop offset="60%" style="stop-color:#7A6B4F;stop-opacity:1" />
      <stop offset="100%" style="stop-color:#5C4F3A;stop-opacity:1" />
    </linearGradient>
    <pattern id="fenceTexture" patternUnits="userSpaceOnUse" width="4" height="4">
      <rect width="4" height="4" fill="#8B7355"/>
      <circle cx="1" cy="1" r="0.3" fill="#A68B5B" opacity="0.3"/>
      <circle cx="3" cy="3" r="0.2" fill="#6B5B47" opacity="0.4"/>
    </pattern>
    <filter id="fenceShadow" x="-20%" y="-20%" width="140%" height="140%">
      <feDropShadow dx="2" dy="4" stdDeviation="3" flood-color="#000" flood-opacity="0.3"/>
    </filter>
  </defs>
  
  <!-- Фон -->
  <rect width="400" height="300" fill="#f8f9fa"/>
  
  <!-- Тень от оградки -->
  <ellipse cx="200" cy="290" rx="120" ry="8" fill="#000" opacity="0.2"/>
  
  <!-- Оградка -->
  <!-- Левая колонна -->
  <rect x="80" y="100" width="20" height="120" fill="url(#fenceGranite)" stroke="#4A3E32" stroke-width="1" filter="url(#fenceShadow)"/>
  <rect x="80" y="100" width="20" height="120" fill="url(#fenceTexture)" opacity="0.3"/>
  
  <!-- Правая колонна -->
  <rect x="300" y="100" width="20" height="120" fill="url(#fenceGranite)" stroke="#4A3E32" stroke-width="1" filter="url(#fenceShadow)"/>
  <rect x="300" y="100" width="20" height="120" fill="url(#fenceTexture)" opacity="0.3"/>
  
  <!-- Верхняя перекладина -->
  <rect x="80" y="100" width="240" height="15" fill="url(#fenceGranite)" stroke="#4A3E32" stroke-width="1" filter="url(#fenceShadow)"/>
  <rect x="80" y="100" width="240" height="15" fill="url(#fenceTexture)" opacity="0.3"/>
  
  <!-- Нижняя перекладина -->
  <rect x="80" y="200" width="240" height="15" fill="url(#fenceGranite)" stroke="#4A3E32" stroke-width="1" filter="url(#fenceShadow)"/>
  <rect x="80" y="200" width="240" height="15" fill="url(#fenceTexture)" opacity="0.3"/>
  
  <!-- Кованые элементы с деталями -->
  <g transform="translate(120, 130)">
    <circle cx="0" cy="0" r="10" fill="#DAA520" stroke="#B8860B" stroke-width="1"/>
    <circle cx="0" cy="0" r="6" fill="#FFD700" opacity="0.8"/>
    <circle cx="0" cy="0" r="2" fill="#FFA500"/>
  </g>
  
  <g transform="translate(180, 130)">
    <circle cx="0" cy="0" r="10" fill="#DAA520" stroke="#B8860B" stroke-width="1"/>
    <circle cx="0" cy="0" r="6" fill="#FFD700" opacity="0.8"/>
    <circle cx="0" cy="0" r="2" fill="#FFA500"/>
  </g>
  
  <g transform="translate(240, 130)">
    <circle cx="0" cy="0" r="10" fill="#DAA520" stroke="#B8860B" stroke-width="1"/>
    <circle cx="0" cy="0" r="6" fill="#FFD700" opacity="0.8"/>
    <circle cx="0" cy="0" r="2" fill="#FFA500"/>
  </g>
  
  <g transform="translate(280, 130)">
    <circle cx="0" cy="0" r="10" fill="#DAA520" stroke="#B8860B" stroke-width="1"/>
    <circle cx="0" cy="0" r="6" fill="#FFD700" opacity="0.8"/>
    <circle cx="0" cy="0" r="2" fill="#FFA500"/>
  </g>
  
  <!-- Цоколь с текстурой -->
  <rect x="70" y="220" width="260" height="35" fill="url(#fenceGranite)" stroke="#4A3E32" stroke-width="1" filter="url(#fenceShadow)"/>
  <rect x="70" y="220" width="260" height="35" fill="url(#fenceTexture)" opacity="0.2"/>
  
  <!-- Декоративные элементы на цоколе -->
  <rect x="100" y="225" width="200" height="5" fill="#DAA520" opacity="0.6"/>
  <rect x="100" y="240" width="200" height="3" fill="#DAA520" opacity="0.4"/>
  
  <!-- Реалистичные цветы -->
  <g transform="translate(50, 180)">
    <circle cx="0" cy="0" r="12" fill="#ff69b4" opacity="0.9"/>
    <circle cx="-3" cy="-3" r="4" fill="#ff1493"/>
    <circle cx="3" cy="-3" r="4" fill="#ff69b4"/>
    <circle cx="-3" cy="3" r="3" fill="#ff1493"/>
    <circle cx="3" cy="3" r="3" fill="#ff69b4"/>
    <line x1="0" y1="12" x2="0" y2="25" stroke="#228B22" stroke-width="2"/>
  </g>
  
  <g transform="translate(350, 180)">
    <circle cx="0" cy="0" r="12" fill="#ff69b4" opacity="0.9"/>
    <circle cx="-3" cy="-3" r="4" fill="#ff1493"/>
    <circle cx="3" cy="-3" r="4" fill="#ff69b4"/>
    <circle cx="-3" cy="3" r="3" fill="#ff1493"/>
    <circle cx="3" cy="3" r="3" fill="#ff69b4"/>
    <line x1="0" y1="12" x2="0" y2="25" stroke="#228B22" stroke-width="2"/>
  </g>
  
  <!-- Дополнительные цветы -->
  <g transform="translate(60, 200)">
    <circle cx="0" cy="0" r="8" fill="#FFB6C1" opacity="0.8"/>
    <line x1="0" y1="8" x2="0" y2="15" stroke="#32CD32" stroke-width="1.5"/>
  </g>
  
  <g transform="translate(340, 200)">
    <circle cx="0" cy="0" r="8" fill="#FFB6C1" opacity="0.8"/>
    <line x1="0" y1="8" x2="0" y2="15" stroke="#32CD32" stroke-width="1.5"/>
  </g>
</svg>